<?xml version="1.0" standalone="no"?>
<!DOCTYPE svg PUBLIC "-//W3C//DTD SVG 20010904//EN"
 "http://www.w3.org/TR/2001/REC-SVG-20010904/DTD/svg10.dtd">
<svg version="1.0" xmlns="http://www.w3.org/2000/svg"
 width="165.000000pt" height="165.000000pt" viewBox="0 0 165.000000 165.000000"
 preserveAspectRatio="xMidYMid meet">
<metadata>
Created by potrace 1.14, written by Peter Selinger 2001-2017
</metadata>
<g transform="translate(0.000000,165.000000) scale(0.100000,-0.100000)"
fill="#000000" stroke="none">
<path d="M650 1574 c-47 -12 -85 -22 -85 -22 0 0 -9 -4 -20 -8 -79 -28 -173
-84 -216 -128 -11 -11 -19 -17 -19 -13 0 3 -17 -12 -37 -35 -21 -22 -51 -53
-66 -69 -15 -16 -25 -29 -22 -29 3 0 -10 -23 -30 -51 -19 -28 -35 -57 -35 -65
0 -8 -3 -14 -8 -14 -4 0 -15 -28 -26 -62 -10 -35 -22 -74 -27 -88 -7 -21 -23
-141 -23 -175 0 -36 17 -149 30 -195 8 -30 16 -59 17 -65 8 -33 73 -155 102
-191 19 -23 31 -45 27 -49 -4 -5 -1 -5 5 -1 7 4 13 3 13 -1 0 -16 123 -133
140 -133 6 0 13 -7 16 -15 4 -8 10 -12 15 -9 5 3 9 2 9 -3 0 -9 27 -23 124
-64 68 -29 79 -32 161 -47 69 -12 246 -6 303 11 29 9 53 16 55 16 1 0 10 2 20
5 19 7 37 12 52 16 6 2 27 14 48 27 20 13 37 21 37 18 0 -3 6 -1 13 4 55 46
77 62 77 57 0 -12 140 136 157 165 10 16 21 29 26 29 4 0 6 4 3 9 -3 5 1 14 9
21 8 7 15 19 15 26 0 8 5 14 12 14 6 0 9 3 5 6 -3 4 1 20 9 36 68 131 86 337
44 501 -20 76 -73 202 -91 212 -5 4 -7 11 -4 16 4 5 1 9 -5 9 -6 0 -13 7 -17
16 -5 14 -47 64 -98 118 -11 12 -36 34 -57 49 -20 14 -43 34 -52 43 -9 8 -16
13 -16 9 0 -3 -12 2 -28 13 -26 19 -138 69 -174 78 -144 35 -271 38 -388 8z"/>
</g>
</svg>
